{"title":"Country.Strong.2010.BDRip.XVID.AC3.HQ.Hive-CM8","uid":6283001,"size":1988589365,"categoryP":"video","categoryS":"movies","magnet":"?xt=urn:btih:f7f84b598ab0f7bfc931bf8ccfc99c95c306aed1&amp;dn=Country.Strong.2010.BDRip.XVID.AC3.HQ.Hive-CM8&amp;tr=udp%3A%2F%2Ftracker.openbittorrent.com%3A80&amp;tr=udp%3A%2F%2Fopen.demonii.com%3A1337&amp;tr=udp%3A%2F%2Ftracker.coppersurfer.tk%3A6969&amp;tr=udp%3A%2F%2Fexodus.desync.com%3A6969","seeders":1,"leechers":0,"uploader":"sceneline","files":5,"time":1301509874,"description":"-\nhttp:// www. Speed. Cd       \nhttp:// www. Speed. Cd       the fast  and The Hottest Private Tracker on the net\n\nPlease Seed back to make the speed Faster!!!\n\nand don't forget to visit      ...... www. Speed. Cd..........\n-[img]http://img30.imageshack.us/img30/9504/13485899.jpg[/img]\n\n[color=blue][size=5][b]Country Strong 2010 BDRip XVID AC3 HQ Hive-CM8[/b][/size][/color]\n\n\n[b]Thx Hive\n\nCM8 Doing It Right The First Time :D\n\nWhy download a touched up rip of a rip BRrip\nGet the real deal BDRip\nEnjoy\n\nSource Bluray\n\nVideo: 720x304 @bitrate 1800 2pass\nAudio: English DTS to AC3 5.1 @448\nSample: yes included[/b]\n\n\n[url]http://www.imdb.com/title/tt1555064/[/url]\n\n\nGeneral\nComplete name                    : Country.Strong.2010.BDRip.XVID.AC3.HQ.Hive-CM8.avi\nFormat                           : AVI\nFormat/Info                      : Audio Video Interleave\nFile size                        : 1.85 GiB\nDuration                         : 1h 57mn\nOverall bit rate                 : 2 257 Kbps\nWriting application              : Nandub v1.0rc2\nWriting library                  : Nandub build 1853/release\n\nVideo\nID                               : 0\nFormat                           : MPEG-4 Visual\nFormat profile                   : Advanced Simple@L5\nFormat settings, BVOP            : Yes\nFormat settings, QPel            : Yes\nFormat settings, GMC             : No warppoints\nFormat settings, Matrix          : Default (H.263)\nMuxing mode                      : Packed bitstream\nCodec ID                         : XVID\nCodec ID/Hint                    : XviD\nDuration                         : 1h 57mn\nBit rate                         : 1 800 Kbps\nWidth                            : 720 pixels\nHeight                           : 304 pixels\nDisplay aspect ratio             : 2.40:1\nFrame rate                       : 23.976 fps\nColor space                      : YUV\nChroma subsampling               : 4:2:0\nBit depth                        : 8 bits\nScan type                        : Progressive\nBits/(Pixel*Frame)               : 0.343\nStream size                      : 1.47 GiB (80%)\nWriting library                  : XviD 1.2.1 (UTC 2008-12-04)\n\nAudio\nID                               : 1\nFormat                           : AC-3\nFormat/Info                      : Audio Coding 3\nMode extension                   : CM (complete main)\nCodec ID                         : 2000\nDuration                         : 1h 57mn\nBit rate mode                    : Constant\nBit rate                         : 448 Kbps\nChannel(s)                       : 6 channels\nChannel positions                : Front: L C R, Side: L R, LFE\nSampling rate                    : 48.0 KHz\nBit depth                        : 16 bits\nStream size                      : 375 MiB (20%)\nAlignment                        : Split accross interleaves\nInterleave, duration             : 42 ms (1.00 video frame)\nInterleave, preload duration     : 500 ms\n\n\nGwyneth Paltrow\t ... \tKelly Canter\nTim McGraw\t... \tJames Canter\nGarrett Hedlund\t... \tBeau Hutton\nTina White\t... \tInterviewee\nLeighton Meester ...    Chiles Stanton\nMarshall Chapman ... \tWinnie\nLari White\t... \tHair Stylist\nJeremy Childs\t... \tJJ\n\n\nA drama centered on a rising country-music songwriter (Hedlund) who sparks \nwith a fallen star (Paltrow). Together, they mount his ascent and her comeback, \nwhich leads to romantic complications involving her husband/manager (McGraw) \nand a beauty queen-turned-singer (Meester).  \n\n\n[img]http://img18.imageshack.us/img18/2522/cocococo.png[/img]\n[img]http://img41.imageshack.us/img41/5752/cococococo.png[/img]\n[img]http://img27.imageshack.us/img27/9292/cococo.png[/img]\n[img]http://img691.imageshack.us/img691/7641/66091234.png[/img]\n[img]http://img88.imageshack.us/img88/5599/cocoaq.png[/img]\n\n\n\nViSiON,LUSi,,MAGNET,CLASSiFiED,THC,T0XiCiNK,IMAGiNE,WBZ,FLAWL3SS,NOVA\nVik,Rapeseed,D2U,SAFC,goldadvance,MEMORY100,KaN1vE,Unevano,Pinnz,Wayne,Mr Hive\nand all P2P groups \nGreat Work Guys :D\n\n&lt;a class=&quot;__cf_email__&quot; href=&quot;/cdn-cgi/l/email-protection&quot; data-cfemail=&quot;93d0deabd3fbe6e0fbfef2faffbdf0fcfe&quot;&gt;[email&amp;#160;protected]&lt;/a&gt;&lt;script cf-hash='f9e31' type=&quot;text/javascript&quot;&gt;\n/* &lt;![CDATA[ */!function(){try{var t=&quot;currentScript&quot;in document?document.currentScript:function(){for(var t=document.getElementsByTagName(&quot;script&quot;),e=t.length;e--;)if(t[e].getAttribute(&quot;cf-hash&quot;))return t[e]}();if(t&amp;&amp;t.previousSibling){var e,r,n,i,c=t.previousSibling,a=c.getAttribute(&quot;data-cfemail&quot;);if(a){for(e=&quot;&quot;,r=parseInt(a.substr(0,2),16),n=2;a.length-n;n+=2)i=parseInt(a.substr(n,2),16)^r,e+=String.fromCharCode(i);e=document.createTextNode(e),c.parentNode.replaceChild(e,c)}}}catch(u){}}();/* ]]&gt; */&lt;/script&gt;","torrent":{"xt":"urn:btih:f7f84b598ab0f7bfc931bf8ccfc99c95c306aed1","amp;dn":"Country.Strong.2010.BDRip.XVID.AC3.HQ.Hive-CM8","amp;tr":["udp%3A%2F%2Ftracker.openbittorrent.com%3A80","udp%3A%2F%2Fopen.demonii.com%3A1337","udp%3A%2F%2Ftracker.coppersurfer.tk%3A6969","udp%3A%2F%2Fexodus.desync.com%3A6969"],"infoHash":"f7f84b598ab0f7bfc931bf8ccfc99c95c306aed1","infoHashBuffer":{"type":"Buffer","data":[247,248,75,89,138,176,247,191,201,49,191,140,207,201,156,149,195,6,174,209]},"announce":[],"urlList":[]}}